<?xml version="1.0" encoding="utf-8"?>
<!-- Generator: Adobe Illustrator 16.0.3, SVG Export Plug-In . SVG Version: 6.00 Build 0)  -->
<!DOCTYPE svg PUBLIC "-//W3C//DTD SVG 1.1//EN" "http://www.w3.org/Graphics/SVG/1.1/DTD/svg11.dtd">
<svg version="1.1" id="Layer_1" xmlns="http://www.w3.org/2000/svg" xmlns:xlink="http://www.w3.org/1999/xlink" x="0px" y="0px"
	 width="456px" height="109px" viewBox="0 0 456 109" enable-background="new 0 0 456 109" xml:space="preserve">
<g>
	<image overflow="visible" opacity="0.55" width="456" height="109" xlink:href="9D6FFBC2.png" >
	</image>
	<g>
		<linearGradient id="SVGID_1_" gradientUnits="userSpaceOnUse" x1="228" y1="29.0786" x2="228" y2="104.0106">
			<stop  offset="0" style="stop-color:#ED1555"/>
			<stop  offset="1" style="stop-color:#9C2242"/>
		</linearGradient>
		<polygon fill="url(#SVGID_1_)" points="433.622,104.402 3,104.402 3,2.402 453,2.402 453,84.895 		"/>
	</g>
</g>
<g>
	<g opacity="0.35">
		<path d="M149.669,66.582V42.239h-9.534v24.342h-6.202V37.388h21.938v29.194H149.669z"/>
		<path d="M165.236,66.582V37.388h6.244v29.194H165.236z"/>
		<path d="M203.247,73.416h-4.43l-0.717-6.834h-15.778l-0.717,6.834h-4.388V61.772h2.067c0.646-0.703,1.167-1.582,1.561-2.637
			c0.394-1.055,0.752-2.517,1.076-4.387c0.323-1.87,0.724-4.662,1.202-8.375l1.097-8.986h16.495v24.384h2.531V73.416z
			 M189.494,42.028l-0.422,3.966c-0.366,3.459-0.738,6.18-1.118,8.163s-0.858,3.558-1.435,4.725c-0.577,1.167-1.329,2.13-2.257,2.89
			h10.378V42.028H189.494z"/>
		<path d="M210.376,66.582V37.388h6.244v29.194H210.376z"/>
		<path d="M243.957,50.234c1.997,1.533,2.995,3.79,2.995,6.771c0,3.179-1.033,5.569-3.101,7.172s-4.845,2.405-8.332,2.405h-9.577
			V37.388h17.677l-0.675,4.767h-10.8v5.78h3.333C239.133,47.935,241.96,48.701,243.957,50.234z M239.105,60.823
			c0.9-0.773,1.35-2.018,1.35-3.733c0-1.603-0.45-2.798-1.35-3.586c-0.9-0.787-2.264-1.181-4.092-1.181h-2.869v9.661h3.038
			C236.897,61.983,238.205,61.597,239.105,60.823z"/>
		<path d="M271.949,39.75c2.095,1.575,3.143,3.923,3.143,7.045c0,3.263-1.041,5.717-3.122,7.362
			c-2.082,1.646-4.866,2.468-8.353,2.468h-3.333v9.956h-6.202V37.388h9.028C266.907,37.388,269.853,38.175,271.949,39.75z
			 M267.245,50.846c0.956-0.815,1.435-2.166,1.435-4.05c0-3.291-1.885-4.936-5.653-4.936h-2.742v10.209h2.827
			C264.91,52.069,266.288,51.662,267.245,50.846z"/>
		<path d="M284.035,60.042l-1.645,6.539h-6.455l8.986-29.194h7.551l8.944,29.194h-6.581l-1.646-6.539H284.035z M288.591,41.986
			l-3.375,13.458h6.792L288.591,41.986z"/>
		<path d="M316.478,42.239v24.342h-6.201V42.239h-7.763v-4.852h22.022l-0.675,4.852H316.478z"/>
		<path d="M346.768,66.582V54.854c0-3.994,0.295-7.734,0.886-11.222l-9.197,22.95h-7.594V37.388h6.117v11.855
			c0,2.362-0.078,4.324-0.232,5.885c-0.155,1.561-0.373,3.284-0.654,5.168l9.366-22.908h7.425v29.194H346.768z"/>
		<path d="M366.765,61.097c0.703,0.703,1.055,1.547,1.055,2.531c0,0.985-0.352,1.835-1.055,2.552s-1.561,1.076-2.573,1.076
			c-0.985,0-1.829-0.358-2.531-1.076c-0.703-0.717-1.055-1.567-1.055-2.552c0-0.984,0.352-1.828,1.055-2.531
			c0.703-0.703,1.546-1.055,2.531-1.055C365.204,60.042,366.062,60.395,366.765,61.097z M361.745,56.077l-0.802-18.689h6.413
			l-0.717,18.689H361.745z"/>
	</g>
	<g>
		<g>
			<linearGradient id="SVGID_2_" gradientUnits="userSpaceOnUse" x1="144.9023" y1="36.3877" x2="144.9023" y2="65.5815">
				<stop  offset="0" style="stop-color:#FFFFFF"/>
				<stop  offset="1" style="stop-color:#D1D3D4"/>
			</linearGradient>
			<path fill="url(#SVGID_2_)" d="M149.669,65.582V41.239h-9.534v24.342h-6.202V36.388h21.938v29.194H149.669z"/>
			<linearGradient id="SVGID_3_" gradientUnits="userSpaceOnUse" x1="168.3579" y1="36.3877" x2="168.3579" y2="65.5815">
				<stop  offset="0" style="stop-color:#FFFFFF"/>
				<stop  offset="1" style="stop-color:#D1D3D4"/>
			</linearGradient>
			<path fill="url(#SVGID_3_)" d="M165.236,65.582V36.388h6.244v29.194H165.236z"/>
			<linearGradient id="SVGID_4_" gradientUnits="userSpaceOnUse" x1="190.2319" y1="36.3877" x2="190.2319" y2="72.416">
				<stop  offset="0" style="stop-color:#FFFFFF"/>
				<stop  offset="1" style="stop-color:#D1D3D4"/>
			</linearGradient>
			<path fill="url(#SVGID_4_)" d="M203.247,72.416h-4.43l-0.717-6.834h-15.778l-0.717,6.834h-4.388V60.772h2.067
				c0.646-0.703,1.167-1.582,1.561-2.637c0.394-1.055,0.752-2.517,1.076-4.387c0.323-1.87,0.724-4.662,1.202-8.375l1.097-8.986
				h16.495v24.384h2.531V72.416z M189.494,41.028l-0.422,3.966c-0.366,3.459-0.738,6.18-1.118,8.163s-0.858,3.558-1.435,4.725
				c-0.577,1.167-1.329,2.13-2.257,2.89h10.378V41.028H189.494z"/>
			<linearGradient id="SVGID_5_" gradientUnits="userSpaceOnUse" x1="213.4985" y1="36.3877" x2="213.4985" y2="65.5815">
				<stop  offset="0" style="stop-color:#FFFFFF"/>
				<stop  offset="1" style="stop-color:#D1D3D4"/>
			</linearGradient>
			<path fill="url(#SVGID_5_)" d="M210.376,65.582V36.388h6.244v29.194H210.376z"/>
			<linearGradient id="SVGID_6_" gradientUnits="userSpaceOnUse" x1="236.4478" y1="36.3877" x2="236.4478" y2="65.5815">
				<stop  offset="0" style="stop-color:#FFFFFF"/>
				<stop  offset="1" style="stop-color:#D1D3D4"/>
			</linearGradient>
			<path fill="url(#SVGID_6_)" d="M243.957,49.234c1.997,1.533,2.995,3.79,2.995,6.771c0,3.179-1.033,5.569-3.101,7.172
				s-4.845,2.405-8.332,2.405h-9.577V36.388h17.677l-0.675,4.767h-10.8v5.78h3.333C239.133,46.935,241.96,47.701,243.957,49.234z
				 M239.105,59.823c0.9-0.773,1.35-2.018,1.35-3.733c0-1.603-0.45-2.798-1.35-3.586c-0.9-0.787-2.264-1.181-4.092-1.181h-2.869
				v9.661h3.038C236.897,60.983,238.205,60.597,239.105,59.823z"/>
			<linearGradient id="SVGID_7_" gradientUnits="userSpaceOnUse" x1="264.5864" y1="36.3877" x2="264.5864" y2="65.5815">
				<stop  offset="0" style="stop-color:#FFFFFF"/>
				<stop  offset="1" style="stop-color:#D1D3D4"/>
			</linearGradient>
			<path fill="url(#SVGID_7_)" d="M271.949,38.75c2.095,1.575,3.143,3.923,3.143,7.045c0,3.263-1.041,5.717-3.122,7.362
				c-2.082,1.646-4.866,2.468-8.353,2.468h-3.333v9.956h-6.202V36.388h9.028C266.907,36.388,269.853,37.175,271.949,38.75z
				 M267.245,49.846c0.956-0.815,1.435-2.166,1.435-4.05c0-3.291-1.885-4.936-5.653-4.936h-2.742v10.209h2.827
				C264.91,51.069,266.288,50.662,267.245,49.846z"/>
			<linearGradient id="SVGID_8_" gradientUnits="userSpaceOnUse" x1="288.6753" y1="36.3877" x2="288.6753" y2="65.5815">
				<stop  offset="0" style="stop-color:#FFFFFF"/>
				<stop  offset="1" style="stop-color:#D1D3D4"/>
			</linearGradient>
			<path fill="url(#SVGID_8_)" d="M284.035,59.042l-1.645,6.539h-6.455l8.986-29.194h7.551l8.944,29.194h-6.581l-1.646-6.539
				H284.035z M288.591,40.986l-3.375,13.458h6.792L288.591,40.986z"/>
			<linearGradient id="SVGID_9_" gradientUnits="userSpaceOnUse" x1="313.5249" y1="36.3877" x2="313.5249" y2="65.5815">
				<stop  offset="0" style="stop-color:#FFFFFF"/>
				<stop  offset="1" style="stop-color:#D1D3D4"/>
			</linearGradient>
			<path fill="url(#SVGID_9_)" d="M316.478,41.239v24.342h-6.201V41.239h-7.763v-4.852h22.022l-0.675,4.852H316.478z"/>
			<linearGradient id="SVGID_10_" gradientUnits="userSpaceOnUse" x1="341.8745" y1="36.3877" x2="341.8745" y2="65.5815">
				<stop  offset="0" style="stop-color:#FFFFFF"/>
				<stop  offset="1" style="stop-color:#D1D3D4"/>
			</linearGradient>
			<path fill="url(#SVGID_10_)" d="M346.768,65.582V53.854c0-3.994,0.295-7.734,0.886-11.222l-9.197,22.95h-7.594V36.388h6.117
				v11.855c0,2.362-0.078,4.324-0.232,5.885c-0.155,1.561-0.373,3.284-0.654,5.168l9.366-22.908h7.425v29.194H346.768z"/>
			<linearGradient id="SVGID_11_" gradientUnits="userSpaceOnUse" x1="364.2124" y1="36.3877" x2="364.2124" y2="66.2563">
				<stop  offset="0" style="stop-color:#FFFFFF"/>
				<stop  offset="1" style="stop-color:#D1D3D4"/>
			</linearGradient>
			<path fill="url(#SVGID_11_)" d="M366.765,60.097c0.703,0.703,1.055,1.547,1.055,2.531c0,0.985-0.352,1.835-1.055,2.552
				s-1.561,1.076-2.573,1.076c-0.985,0-1.829-0.358-2.531-1.076c-0.703-0.717-1.055-1.567-1.055-2.552
				c0-0.984,0.352-1.828,1.055-2.531c0.703-0.703,1.546-1.055,2.531-1.055C365.204,59.042,366.062,59.395,366.765,60.097z
				 M361.745,55.077l-0.802-18.689h6.413l-0.717,18.689H361.745z"/>
		</g>
	</g>
</g>
<rect x="3" y="2" fill="#ED648D" width="450" height="1.49"/>
<g>
	<g>
		<g opacity="0.35">
			<path d="M56.635,71.203c-11.315,0-20.521-9.206-20.521-20.52c0-11.316,9.205-20.521,20.521-20.521
				c11.316,0,20.52,9.205,20.52,20.521C77.155,61.997,67.951,71.203,56.635,71.203z M56.635,35.44
				c-8.404,0-15.241,6.839-15.241,15.242c0,8.404,6.837,15.24,15.241,15.24c8.404,0,15.242-6.835,15.242-15.24
				C71.877,42.28,65.04,35.44,56.635,35.44z"/>
		</g>
		<g>
			<g>
				<linearGradient id="SVGID_12_" gradientUnits="userSpaceOnUse" x1="56.6353" y1="29.1621" x2="56.6353" y2="70.2026">
					<stop  offset="0" style="stop-color:#FFFFFF"/>
					<stop  offset="1" style="stop-color:#D1D3D4"/>
				</linearGradient>
				<path fill="url(#SVGID_12_)" d="M56.635,70.203c-11.315,0-20.521-9.206-20.521-20.52c0-11.316,9.205-20.521,20.521-20.521
					c11.316,0,20.52,9.205,20.52,20.521C77.155,60.997,67.951,70.203,56.635,70.203z M56.635,34.44
					c-8.404,0-15.241,6.839-15.241,15.242c0,8.404,6.837,15.24,15.241,15.24c8.404,0,15.242-6.835,15.242-15.24
					C71.877,41.28,65.04,34.44,56.635,34.44z"/>
			</g>
		</g>
	</g>
	<g>
		<g opacity="0.35">
			<rect x="74.463" y="65.179" transform="matrix(0.707 0.7072 -0.7072 0.707 71.3185 -36.5155)" width="10.537" height="5.281"/>
		</g>
		<g>
			<g>
				<linearGradient id="SVGID_13_" gradientUnits="userSpaceOnUse" x1="79.731" y1="61.2266" x2="79.731" y2="72.4121">
					<stop  offset="0" style="stop-color:#FFFFFF"/>
					<stop  offset="1" style="stop-color:#D1D3D4"/>
				</linearGradient>
				<polygon fill="url(#SVGID_13_)" points="81.589,72.412 74.139,64.96 77.873,61.227 85.323,68.678 				"/>
			</g>
		</g>
	</g>
</g>
</svg>
