<?xml version="1.0" encoding="utf-8"?>
<!-- Generator: Adobe Illustrator 16.0.2, SVG Export Plug-In . SVG Version: 6.00 Build 0)  -->
<!DOCTYPE svg PUBLIC "-//W3C//DTD SVG 1.1//EN" "http://www.w3.org/Graphics/SVG/1.1/DTD/svg11.dtd">
<svg version="1.1" id="Layer_1" xmlns="http://www.w3.org/2000/svg" xmlns:xlink="http://www.w3.org/1999/xlink" x="0px" y="0px"
	 width="256px" height="65.286px" viewBox="0 0 256 65.286" enable-background="new 0 0 256 65.286" xml:space="preserve">
<g>
	<g opacity="0.35">
		<path d="M12.031,59.912c0,1.184-0.957,2.14-2.14,2.14H3.473c-1.182,0-2.14-0.956-2.14-2.14V25.679c0-1.183,0.958-2.14,2.14-2.14
			h6.418c1.183,0,2.14,0.957,2.14,2.14V59.912z M61.192,28.963c-0.042,1.057-0.484,3.134-4.229,3.134c-3.21,0-4.279,0-4.279,0
			c-0.594,0-1.07,0.481-1.07,1.07c0,0.59,0.477,1.071,1.07,1.071c0,0,0.936,0,4.145,0c3.21,0,3.632,2.66,3.425,3.944
			c-0.265,1.595-1.013,4.614-4.627,4.614c-3.611,0-5.082,0-5.082,0c-0.593,0-1.07,0.475-1.07,1.067c0,0.589,0.477,1.071,1.07,1.071
			c0,0,2.54,0,4.212,0c3.61,0,3.292,2.752,2.774,4.396c-0.681,2.161-1.098,4.163-5.649,4.163c-1.538,0-3.49,0-3.49,0
			c-0.593,0-1.069,0.477-1.069,1.069c0,0.589,0.477,1.069,1.069,1.069c0,0,1.483,0,3.356,0c2.339,0,2.448,2.215,2.206,3.009
			c-0.268,0.87-0.585,1.513-0.598,1.542c-0.647,1.165-1.688,1.868-3.894,1.868H37.765c-5.875,0-11.705-1.332-11.855-1.365
			c-8.887-2.049-9.356-2.208-9.913-2.366c0,0-1.812-0.307-1.812-1.886l-0.015-29.552c0-1.003,0.64-1.91,1.7-2.227
			c0.131-0.053,0.311-0.109,0.44-0.161c9.775-4.05,12.749-12.923,12.838-20.211c0.012-1.024,0.802-2.14,2.139-2.14
			c2.261,0,6.26,4.54,6.26,10.159c0,5.073-0.205,5.951-1.981,11.237c21.396,0,21.245,0.309,23.134,0.801
			c2.34,0.67,2.541,2.608,2.541,3.277C61.242,28.351,61.221,28.245,61.192,28.963z"/>
		<path d="M103.59,51.443l-0.794,5.718H81.937V20.577h6.988v30.866H103.59z"/>
		<path d="M108.731,57.161V20.577h7.041v36.583H108.731z"/>
		<path d="M124.353,57.161V20.577h6.988v36.583H124.353z M152.889,57.161h-8.313l-12.917-19.536l12.653-17.047h7.57L139.229,37.15
			L152.889,57.161z"/>
		<path d="M163.801,25.765v10.218h11.754v5.189h-11.754v10.747h14.454v5.241h-21.442V20.577h21.231l-0.742,5.188H163.801z"/>
		<path d="M193.552,54.727c1.081,0,2.088-0.372,3.132-0.932l0.745,1.603c-1.305,0.746-2.646,1.193-4.212,1.193
			c-2.945,0-4.585-1.789-4.101-5.182l1.826-12.973h-3.28l0.261-1.752h3.318l1.081-4.734l1.714-0.187l-0.708,4.92h4.995l-0.484,1.752
			h-4.734l-1.826,12.936C190.942,53.646,191.576,54.727,193.552,54.727z"/>
		<path d="M217.184,44.103c0,4.809-2.349,12.488-9.729,12.488c-4.548,0-7.083-2.982-7.083-7.903c0-4.92,2.423-12.413,9.767-12.413
			C214.611,36.275,217.184,39.145,217.184,44.103z M202.607,48.875c0,3.914,1.753,5.89,4.884,5.89c5.703,0,7.418-6.635,7.418-10.81
			c0-3.914-1.715-5.891-4.846-5.891C204.285,38.064,202.607,44.812,202.607,48.875z"/>
		<path d="M233.767,56.181l0.522-4.958c-1.678,3.132-4.063,5.368-7.194,5.368c-3.355,0-5.07-2.199-4.548-6.039l1.976-13.867h2.125
			l-1.938,13.793c-0.447,3.094,0.596,4.324,2.795,4.324c2.908,0,5.257-2.796,7.009-6.188l1.64-11.929h2.162l-2.758,19.496H233.767z"
			/>
		<path d="M255.607,36.536l-0.597,2.014c-0.521-0.149-1.044-0.187-1.565-0.187c-2.833,0-4.66,2.535-6.263,6.71l-1.603,11.108h-2.125
			l2.759-19.496h1.826l-0.521,4.734c1.453-3.28,3.541-5.145,6.225-5.145C254.489,36.275,255.16,36.387,255.607,36.536z"/>
	</g>
	<g>
		<g>
			<g>
				<path fill="#F1F2F2" d="M12.031,58.912c0,1.184-0.957,2.14-2.14,2.14H3.473c-1.182,0-2.14-0.956-2.14-2.14V24.679
					c0-1.183,0.958-2.14,2.14-2.14h6.418c1.183,0,2.14,0.957,2.14,2.14V58.912z M61.192,27.963
					c-0.042,1.057-0.484,3.134-4.229,3.134c-3.21,0-4.279,0-4.279,0c-0.594,0-1.07,0.481-1.07,1.07c0,0.59,0.477,1.071,1.07,1.071
					c0,0,0.936,0,4.145,0c3.21,0,3.632,2.66,3.425,3.944c-0.265,1.595-1.013,4.614-4.627,4.614c-3.611,0-5.082,0-5.082,0
					c-0.593,0-1.07,0.475-1.07,1.067c0,0.589,0.477,1.071,1.07,1.071c0,0,2.54,0,4.212,0c3.61,0,3.292,2.752,2.774,4.396
					c-0.681,2.161-1.098,4.163-5.649,4.163c-1.538,0-3.49,0-3.49,0c-0.593,0-1.069,0.477-1.069,1.069
					c0,0.589,0.477,1.069,1.069,1.069c0,0,1.483,0,3.356,0c2.339,0,2.448,2.215,2.206,3.009c-0.268,0.87-0.585,1.513-0.598,1.542
					c-0.647,1.165-1.688,1.868-3.894,1.868H37.765c-5.875,0-11.705-1.332-11.855-1.365c-8.887-2.049-9.356-2.208-9.913-2.366
					c0,0-1.812-0.307-1.812-1.886l-0.015-29.552c0-1.003,0.64-1.91,1.7-2.227c0.131-0.053,0.311-0.109,0.44-0.161
					c9.775-4.05,12.749-12.923,12.838-20.211c0.012-1.024,0.802-2.14,2.139-2.14c2.261,0,6.26,4.54,6.26,10.159
					c0,5.073-0.205,5.951-1.981,11.237c21.396,0,21.245,0.309,23.134,0.801c2.34,0.67,2.541,2.608,2.541,3.277
					C61.242,27.351,61.221,27.245,61.192,27.963z"/>
				<g>
					<g>
						<path fill="#F1F2F2" d="M103.59,50.443l-0.794,5.718H81.937V19.577h6.988v30.866H103.59z"/>
						<path fill="#F1F2F2" d="M108.731,56.161V19.577h7.041v36.583H108.731z"/>
						<path fill="#F1F2F2" d="M124.353,56.161V19.577h6.988v36.583H124.353z M152.889,56.161h-8.313l-12.917-19.536l12.653-17.047
							h7.57L139.229,36.15L152.889,56.161z"/>
						<path fill="#F1F2F2" d="M163.801,24.765v10.218h11.754v5.189h-11.754v10.747h14.454v5.241h-21.442V19.577h21.231l-0.742,5.188
							H163.801z"/>
					</g>
					<g>
						<g>
							<path fill="#F1F2F2" d="M193.552,53.727c1.081,0,2.088-0.372,3.132-0.932l0.745,1.603c-1.305,0.746-2.646,1.193-4.212,1.193
								c-2.945,0-4.585-1.789-4.101-5.182l1.826-12.973h-3.28l0.261-1.752h3.318l1.081-4.734l1.714-0.187l-0.708,4.92h4.995
								l-0.484,1.752h-4.734l-1.826,12.936C190.942,52.646,191.576,53.727,193.552,53.727z"/>
							<path fill="#F1F2F2" d="M217.184,43.103c0,4.809-2.349,12.488-9.729,12.488c-4.548,0-7.083-2.982-7.083-7.903
								c0-4.92,2.423-12.413,9.767-12.413C214.611,35.275,217.184,38.145,217.184,43.103z M202.607,47.875
								c0,3.914,1.753,5.89,4.884,5.89c5.703,0,7.418-6.635,7.418-10.81c0-3.914-1.715-5.891-4.846-5.891
								C204.285,37.064,202.607,43.812,202.607,47.875z"/>
							<path fill="#F1F2F2" d="M233.767,55.181l0.522-4.958c-1.678,3.132-4.063,5.368-7.194,5.368c-3.355,0-5.07-2.199-4.548-6.039
								l1.976-13.867h2.125l-1.938,13.793c-0.447,3.094,0.596,4.324,2.795,4.324c2.908,0,5.257-2.796,7.009-6.188l1.64-11.929h2.162
								l-2.758,19.496H233.767z"/>
							<path fill="#F1F2F2" d="M255.607,35.536l-0.597,2.014c-0.521-0.149-1.044-0.187-1.565-0.187c-2.833,0-4.66,2.535-6.263,6.71
								l-1.603,11.108h-2.125l2.759-19.496h1.826l-0.521,4.734c1.453-3.28,3.541-5.145,6.225-5.145
								C254.489,35.275,255.16,35.387,255.607,35.536z"/>
						</g>
					</g>
				</g>
			</g>
		</g>
	</g>
</g>
</svg>
